HIERARCHY
ROOT Hips
{
	OFFSET 0.000000 0.000000 0.000000
	CHANNELS 6 Xposition Yposition Zposition Xrotation Yrotation Zrotation
	JOINT LeftUpLeg_virtual
	{
		OFFSET 0.000000 0.000000 0.000000
		CHANNELS 3 Xrotation Yrotation Zrotation
		JOINT LeftUpLeg
		{
			OFFSET 11.394100 -6.187798 -0.413800
			CHANNELS 3 Xrotation Yrotation Zrotation
			JOINT LeftLeg
			{
				OFFSET 0.430247 -32.302673 3.732800
				CHANNELS 3 Xrotation Yrotation Zrotation
				JOINT LeftFoot
				{
					OFFSET -0.430247 -48.264931 -6.423300
					CHANNELS 3 Xrotation Yrotation Zrotation
					JOINT LeftToeBase
					{
						OFFSET 4.230900 -16.068199 23.438400
						CHANNELS 3 Xrotation Yrotation Zrotation
						JOINT LeftToe_End
						{
							OFFSET 4.510700 0.695400 19.974600
							CHANNELS 3 Xrotation Yrotation Zrotation
							End Site
							{
								OFFSET 0 0 0
							}
						}
					}
				}
			}
		}
	}
	JOINT RightUpLeg_virtual
	{
		OFFSET 0.000000 0.000000 0.000000
		CHANNELS 3 Xrotation Yrotation Zrotation
		JOINT RightUpLeg
		{
			OFFSET -11.333700 -6.187798 -0.413800
			CHANNELS 3 Xrotation Yrotation Zrotation
			JOINT RightLeg
			{
				OFFSET -0.430392 -32.302628 3.733000
				CHANNELS 3 Xrotation Yrotation Zrotation
				JOINT RightFoot
				{
					OFFSET 0.430392 -48.264973 -6.423500
					CHANNELS 3 Xrotation Yrotation Zrotation
					JOINT RightToeBase
					{
						OFFSET -4.230900 -16.068199 23.438400
						CHANNELS 3 Xrotation Yrotation Zrotation
						JOINT RightToe_End
						{
							OFFSET -4.510700 0.695400 19.974600
							CHANNELS 3 Xrotation Yrotation Zrotation
							End Site
							{
								OFFSET 0 0 0
							}
						}
					}
				}
			}
		}
	}
	JOINT Spine_virtual
	{
		OFFSET 0.000000 0.000000 0.000000
		CHANNELS 3 Xrotation Yrotation Zrotation
		JOINT Spine
		{
			OFFSET -0.002400 12.777504 0.315300
			CHANNELS 3 Xrotation Yrotation Zrotation
			JOINT Spine1
			{
				OFFSET -0.002067 5.816869 0.032633
				CHANNELS 3 Xrotation Yrotation Zrotation
				JOINT Spine1_split
				{
					OFFSET -0.002067 5.816869 0.032633
					CHANNELS 3 Xrotation Yrotation Zrotation
					JOINT Spine2
					{
						OFFSET -0.002067 5.816869 0.032633
						CHANNELS 3 Xrotation Yrotation Zrotation
						JOINT Neck_virtual
						{
							OFFSET 0.000000 0.000000 0.000000
							CHANNELS 3 Xrotation Yrotation Zrotation
							JOINT Neck
							{
								OFFSET -0.003700 21.199493 -0.826900
								CHANNELS 3 Xrotation Yrotation Zrotation
								JOINT Head
								{
									OFFSET 0.000000 20.442200 4.834800
									CHANNELS 3 Xrotation Yrotation Zrotation
									JOINT HeadTop_End
									{
										OFFSET 0.000000 34.668396 4.968400
										CHANNELS 3 Xrotation Yrotation Zrotation
										End Site
										{
											OFFSET 0 0 0
										}
									}
								}
							}
						}
						JOINT LeftShoulder_virtual
						{
							OFFSET 0.000000 0.000000 0.000000
							CHANNELS 3 Xrotation Yrotation Zrotation
							JOINT LeftShoulder
							{
								OFFSET 3.288150 8.794197 -1.372250
								CHANNELS 3 Xrotation Yrotation Zrotation
								JOINT LeftShoulder_split
								{
									OFFSET 3.288150 8.794197 -1.372250
									CHANNELS 3 Xrotation Yrotation Zrotation
									JOINT LeftArm
									{
										OFFSET 11.953299 -2.279007 -0.146200
										CHANNELS 3 Xrotation Yrotation Zrotation
										JOINT LeftForeArm
										{
											OFFSET 18.448900 0.000000 0.000000
											CHANNELS 3 Xrotation Yrotation Zrotation
											JOINT LeftHand
											{
												OFFSET 29.527798 0.000000 0.000000
												CHANNELS 3 Xrotation Yrotation Zrotation
												End Site
												{
													OFFSET 0 0 0
												}
											}
										}
									}
								}
							}
						}
						JOINT RightShoulder_virtual
						{
							OFFSET 0.000000 0.000000 0.000000
							CHANNELS 3 Xrotation Yrotation Zrotation
							JOINT RightShoulder
							{
								OFFSET -3.249400 8.794197 -1.372250
								CHANNELS 3 Xrotation Yrotation Zrotation
								JOINT RightShoulder_split
								{
									OFFSET -3.249400 8.794197 -1.372250
									CHANNELS 3 Xrotation Yrotation Zrotation
									JOINT RightArm
									{
										OFFSET -11.953299 -2.279007 -0.146200
										CHANNELS 3 Xrotation Yrotation Zrotation
										JOINT RightForeArm
										{
											OFFSET -18.448900 0.000000 0.000000
											CHANNELS 3 Xrotation Yrotation Zrotation
											JOINT RightHand
											{
												OFFSET -29.527802 0.000000 0.000000
												CHANNELS 3 Xrotation Yrotation Zrotation
												End Site
												{
													OFFSET 0 0 0
												}
											}
										}
									}
								}
							}
						}
					}
				}
			}
		}
	}
}
MOTION
Frames: 4
Frame Time: 0.03333333
6.253657 59.921104 117.154663 0.000000 0.000000 0.000000 14.756303 -48.048400 21.064247 -70.008988 -30.870806 36.775166 69.515534 -24.092917 -8.605986 10.764144 7.784928 -25.195007 -6.206498 -8.745546 -6.785430 0.000000 0.000000 0.000000 10.382611 -46.545164 19.732358 -84.749199 23.355536 -16.259479 95.748522 8.867796 -3.489268 -14.823916 -11.622431 33.501149 10.851199 19.731867 -24.008726 0.000000 0.000000 0.000000 8.052049 -43.418205 17.196881 28.956447 5.732479 -9.881103 4.088942 -3.577839 -1.592874 0.332555 -0.495306 0.253808 0.000000 0.000000 0.000000 3.901513 0.238541 -1.097561 -4.357780 26.179661 -5.038161 -38.659161 14.016690 -1.664229 0.000000 0.000000 0.000000 5.730880 -2.523268 -2.521838 5.297522 -21.234085 4.752552 -3.098590 7.685050 -5.308965 -25.870376 11.054315 -31.578925 -28.101473 -63.666119 -17.780968 0.000000 0.000000 0.000000 8.629854 -0.077051 -0.351277 -1.642997 28.980766 10.282448 13.555826 2.623711 8.647621 -67.215741 -11.361198 21.921924 -15.696178 47.115157 12.314595 0.000000 0.000000 0.000000 
6.431160 58.847492 119.780640 0.000000 0.000000 0.000000 15.204039 -47.017759 21.473961 -71.404150 -30.281623 36.229659 70.828713 -22.538791 -10.275676 7.599036 10.245295 -22.658654 -5.054169 -8.398735 -9.843756 0.000000 0.000000 0.000000 11.017275 -46.229008 20.227848 -83.446484 23.231258 -17.304904 94.326798 8.702695 -3.441111 -17.059851 -12.821341 37.699629 11.135157 19.521989 -21.481088 0.000000 0.000000 0.000000 7.449114 -42.377280 16.777450 30.067094 5.103137 -11.543046 4.422923 -3.103555 -0.675553 0.316392 -0.407754 0.293424 0.000000 0.000000 0.000000 4.303284 0.739494 -0.256330 -7.388006 27.519898 -5.741939 -37.845518 14.936056 -0.971023 0.000000 0.000000 0.000000 6.525023 -2.024125 -1.489095 5.322249 -22.340442 3.322559 -4.030492 6.015331 -4.825843 -24.098466 9.937841 -32.326903 -27.610114 -62.392419 -15.613230 0.000000 0.000000 0.000000 8.964012 0.257571 0.401438 -1.473677 28.911334 10.750740 13.183512 3.920497 9.467870 -65.537318 -9.132894 24.900672 -14.931026 49.184472 12.089534 0.000000 0.000000 0.000000 
6.192858 58.766186 121.886475 0.000000 0.000000 0.000000 15.252774 -46.712961 21.603190 -70.091934 -27.829609 35.735925 70.299155 -19.924534 -12.228102 2.618558 13.066063 -17.698743 -4.703714 -8.039593 -12.930888 0.000000 0.000000 0.000000 11.187633 -45.624755 20.366330 -80.976093 21.876447 -18.591541 93.215539 8.846215 -3.977689 -20.167880 -14.194741 40.457727 11.824766 19.254500 -17.838685 0.000000 0.000000 0.000000 7.473616 -41.254933 16.464330 30.201707 4.781201 -12.249986 4.598319 -2.682796 -0.150854 0.300758 -0.275526 0.264310 0.000000 0.000000 0.000000 4.740785 1.111105 0.203133 -10.087538 28.819594 -6.371240 -37.875868 15.531427 -0.543515 0.000000 0.000000 0.000000 7.044909 -1.587767 -0.884917 4.930447 -22.754263 1.243888 -4.625724 4.366086 -4.293289 -24.192528 10.683973 -32.455703 -25.673085 -63.428190 -12.607620 0.000000 0.000000 0.000000 9.173117 0.460657 0.775066 -1.465581 27.915533 11.096325 12.626975 4.575845 9.836798 -64.867543 -8.009400 26.778957 -15.172405 54.195232 12.930357 0.000000 0.000000 0.000000 
5.767390 59.736153 123.393951 0.000000 0.000000 0.000000 14.999599 -47.038167 21.510101 -67.114716 -24.106058 35.145397 68.620855 -17.148435 -14.009034 -2.956537 14.849861 -11.781734 -4.320393 -7.757619 -15.538636 0.000000 0.000000 0.000000 10.982619 -44.865703 20.124292 -77.636759 19.556713 -19.984840 92.079939 9.221342 -4.970353 -23.239051 -15.345774 41.223139 12.087257 18.997486 -13.412509 0.000000 0.000000 0.000000 8.315118 -40.136101 16.377298 29.455727 4.638610 -12.218602 4.621797 -2.414277 -0.004865 0.221176 -0.216861 0.223789 0.000000 0.000000 0.000000 5.257279 1.280204 0.314540 -12.439176 29.980716 -6.795730 -39.128941 15.721268 -0.388349 0.000000 0.000000 0.000000 7.313933 -1.291057 -0.680249 4.177870 -22.661268 -1.250451 -4.787806 2.827713 -3.620568 -25.523896 12.000614 -32.280481 -20.892318 -65.387163 -7.646048 0.000000 0.000000 0.000000 9.280520 0.478890 0.820552 -1.587381 25.966786 11.333216 11.797396 4.385953 9.935314 -64.757823 -8.255273 27.983341 -16.210691 60.335309 14.420633 0.000000 0.000000 0.000000 
